<svg xmlns="http://www.w3.org/2000/svg" viewBox="0 0 500 440">
  <defs>
    <linearGradient id="copper" x1="0" y1="0" x2="1" y2="1">
      <stop offset="0" stop-color="#d99a6c"/>
      <stop offset="1" stop-color="#a9613a"/>
    </linearGradient>
  </defs>
  <!-- quantization grid: rows continuous, cell borders checkered -->
  <g stroke="#7d8899" stroke-width="6" stroke-linecap="round" fill="none">
    <line x1="76" y1="120" x2="380" y2="120"/>
    <line x1="76" y1="162" x2="380" y2="162"/>
    <line x1="76" y1="204" x2="380" y2="204"/>
    <line x1="76" y1="246" x2="380" y2="246"/>
    <line x1="76" y1="288" x2="380" y2="288"/>
    <line x1="76" y1="330" x2="380" y2="330"/>
    <line x1="163" y1="127" x2="163" y2="155"/>
    <line x1="163" y1="211" x2="163" y2="239"/>
    <line x1="163" y1="295" x2="163" y2="323"/>
    <line x1="206" y1="169" x2="206" y2="197"/>
    <line x1="206" y1="253" x2="206" y2="281"/>
    <line x1="250" y1="127" x2="250" y2="155"/>
    <line x1="250" y1="211" x2="250" y2="239"/>
    <line x1="250" y1="295" x2="250" y2="323"/>
    <line x1="293" y1="169" x2="293" y2="197"/>
    <line x1="293" y1="253" x2="293" y2="281"/>
    <line x1="380" y1="127" x2="380" y2="155"/>
    <line x1="380" y1="211" x2="380" y2="239"/>
    <line x1="380" y1="295" x2="380" y2="323"/>
  </g>
  <!-- left ladder frame -->
  <g stroke="#1f2a44" stroke-width="7" stroke-linecap="round" fill="none">
    <line x1="40" y1="117" x2="40" y2="333"/>
    <line x1="62" y1="117" x2="62" y2="333"/>
    <line x1="40" y1="120" x2="62" y2="120"/>
    <line x1="40" y1="150" x2="62" y2="150"/>
    <line x1="40" y1="180" x2="62" y2="180"/>
    <line x1="40" y1="210" x2="62" y2="210"/>
    <line x1="40" y1="240" x2="62" y2="240"/>
    <line x1="40" y1="270" x2="62" y2="270"/>
    <line x1="40" y1="300" x2="62" y2="300"/>
    <line x1="40" y1="330" x2="62" y2="330"/>
  </g>
  <!-- roundtrip arrows (behind the barlines) -->
  <g fill="none" stroke="#8b96a6" stroke-width="16" stroke-linecap="round">
    <path d="M305 141 H396 Q424 141 424 110 Q424 79 396 79 H364"/>
    <path d="M305 225 H428"/>
    <path d="M305 309 H396 Q424 309 424 340 Q424 371 396 371 H364"/>
  </g>
  <g fill="#8b96a6" stroke="none">
    <polygon points="366,61 366,97 334,79"/>
    <polygon points="426,207 426,243 458,225"/>
    <polygon points="366,353 366,389 334,371"/>
  </g>
  <!-- barlines + beam -->
  <g fill="#1f2a44">
    <rect x="107" y="20" width="22" height="395" rx="6"/>
    <rect x="211" y="20" width="22" height="395" rx="6"/>
    <rect x="319" y="20" width="22" height="395" rx="6"/>
    <rect x="199" y="56" width="149" height="26" rx="6"/>
  </g>
  <!-- notes: thin stems + heads -->
  <g fill="url(#copper)">
    <rect x="92" y="116" width="14" height="240" rx="7"/>
    <rect x="196" y="140" width="14" height="172" rx="7"/>
    <rect x="304" y="104" width="14" height="168" rx="7"/>
    <ellipse cx="88" cy="347" rx="38" ry="29" transform="rotate(-20 88 347)"/>
    <ellipse cx="196" cy="303" rx="38" ry="29" transform="rotate(-20 196 303)"/>
    <ellipse cx="301" cy="263" rx="38" ry="29" transform="rotate(-20 301 263)"/>
  </g>
</svg>
