<svg xmlns="http://www.w3.org/2000/svg" viewBox="0 0 240 240">
  <defs>
    <linearGradient id="copperI" x1="0" y1="0" x2="1" y2="1">
      <stop offset="0" stop-color="#d99a6c"/>
      <stop offset="1" stop-color="#a9613a"/>
    </linearGradient>
  </defs>
  <!-- barlines + beam -->
  <g fill="#24304f">
    <rect x="78" y="16" width="16" height="208" rx="5"/>
    <rect x="134" y="16" width="16" height="208" rx="5"/>
    <rect x="190" y="16" width="16" height="208" rx="5"/>
    <rect x="134" y="34" width="72" height="16" rx="5"/>
  </g>
  <!-- notes: thin stems + heads -->
  <g fill="url(#copperI)">
    <rect x="69" y="64" width="8" height="108" rx="4"/>
    <rect x="125" y="78" width="8" height="74" rx="4"/>
    <rect x="181" y="56" width="8" height="74" rx="4"/>
    <ellipse cx="56" cy="172" rx="26" ry="18" transform="rotate(-22 56 172)"/>
    <ellipse cx="112" cy="152" rx="26" ry="18" transform="rotate(-22 112 152)"/>
    <ellipse cx="168" cy="130" rx="26" ry="18" transform="rotate(-22 168 130)"/>
  </g>
</svg>
